<?xml version="1.0" encoding="UTF-8"?>
<svg width="24" height="24" viewBox="0 0 24 24" fill="none" xmlns="http://www.w3.org/2000/svg">
  <!-- Background circle -->
  <circle cx="12" cy="12" r="11" fill="white" stroke="#4CAF50" stroke-width="2"/>
  <!-- Bus icon -->
  <path d="M17 8c0-1.1-.9-2-2-2H9C7.9 6 7 6.9 7 8v8h10V8zm-5 1.5c0 .28-.22.5-.5.5h-2c-.28 0-.5-.22-.5-.5s.22-.5.5-.5h2c.28 0 .5.22.5.5zm4 0c0 .28-.22.5-.5.5h-2c-.28 0-.5-.22-.5-.5s.22-.5.5-.5h2c.28 0 .5.22.5.5zm-4 4c0 .28-.22.5-.5.5h-2c-.28 0-.5-.22-.5-.5s.22-.5.5-.5h2c.28 0 .5.22.5.5zm4 0c0 .28-.22.5-.5.5h-2c-.28 0-.5-.22-.5-.5s.22-.5.5-.5h2c.28 0 .5.22.5.5z" fill="#4CAF50"/>
  <!-- Bottom wheels -->
  <circle cx="8.5" cy="16.5" r="1" fill="#4CAF50"/>
  <circle cx="15.5" cy="16.5" r="1" fill="#4CAF50"/>
</svg> 